# xmcd
#
# Track frame offsets:
#	150
#	9775
#	19617
#	26250
#	33350
#	43035
#	51345
#	56200
#	62425
#	69912
#	76307
#	83310
#	89705
#	94270
#	103107
#	110595
#	115585
#	124585
#	127592
#	133690
#
# Disc length: 1888 seconds
#
# Revision: 2
# Processed by: cddbd v1.5.2PL0 Copyright (c) Steve Scherf et al.
# Submitted via: EasyCDDAExtractor 15.2.5.1
#
DISCID=f1075e14
DTITLE=紅頻菓，送給您！ - 粤語幼兒新歌仔(1)
DYEAR=1985
DGENRE=Zouk Retro
TTITLE0=唱歌歌
TTITLE1=红萍果，送給您
TTITLE2=跑步步
TTITLE3=青青的原野
TTITLE4=小樹苗
TTITLE5=飛，小鳥，飛
TTITLE6=小袋鼠
TTITLE7=小白兔
TTITLE8=拍拍手，點點頭
TTITLE9=歡樂兒童
TTITLE10=小小上學歌
TTITLE11=寫字字
TTITLE12=讀書書
TTITLE13=看小花兒是多美
TTITLE14=何家小雞？何家？猜！
TTITLE15=哈哈鏡
TTITLE16=温暖的家
TTITLE17=生辰快樂
TTITLE18=小小的友倩
TTITLE19=小小月光曲
EXTD=
EXTT0=
EXTT1=
EXTT2=
EXTT3=
EXTT4=
EXTT5=
EXTT6=
EXTT7=
EXTT8=
EXTT9=
EXTT10=
EXTT11=
EXTT12=
EXTT13=
EXTT14=
EXTT15=
EXTT16=
EXTT17=
EXTT18=
EXTT19=
PLAYORDER=
